<?xml version="1.0" encoding="UTF-8"?> <svg xmlns="http://www.w3.org/2000/svg" width="160" height="90.839" viewBox="0 0 160 90.839"><g id="Vector" transform="translate(0 0)"><path id="Fill_1" data-name="Fill 1" d="M58.966,23.985C52.194,16.178,45.19,8.106,37.483.74L36.708,0l-.019.02L36.669,0l-.738.777C28.592,8.5,21.377,16.582,14.4,24.4Q9.564,29.817,4.708,35.214C-.423,40.916-1.426,48.948,2.026,56.7c2.961,6.649,8.444,11.294,13.332,11.294h9.411V65.849H15.358c-4.005,0-8.788-4.215-11.375-10.022C.885,48.871,1.752,41.7,6.3,36.649q4.872-5.388,9.7-10.821c6.38-7.15,12.958-14.522,19.639-21.622V90.839h2.142V4.01c6.946,6.828,13.356,14.216,19.57,21.379,3.219,3.709,6.547,7.545,9.9,11.253,4.528,5.1,5.356,12.316,2.214,19.307-2.577,5.737-7.316,9.9-11.268,9.9H48.825v2.143H58.2c4.831,0,10.269-4.592,13.223-11.165,3.5-7.782,2.537-15.861-2.574-21.615-3.35-3.7-6.67-7.526-9.881-11.227" transform="translate(0 0)" fill="#4c8c2b"></path><path id="Fill_4" data-name="Fill 4" d="M6.437,25.168l-2.42,2.667c-5.1,5.522-4.634,12.684-2.505,17.544C3.778,50.553,7.935,53.9,12.1,53.9h8.33v-2.38H12.1c-3.173,0-6.553-2.85-8.411-7.092-2.367-5.4-1.592-11,2.081-14.983L8.2,26.768Q17.526,16.49,26.907,6.16V76.815h2.381V0L27.216,2.279Q16.767,13.784,6.437,25.168" transform="translate(4.396 9.573)" fill="#4c8c2b"></path><path id="Fill_6" data-name="Fill 6" d="M.972,32.614c1.566,3.584,4.806,5.993,8.062,5.993h7.33V36.226H9.034c-2.325,0-4.688-1.834-5.881-4.565C1.6,28.108,2.444,24.075,5.414,20.867L18.839,6.143V61.526H21.22V0L3.662,19.257C.035,23.174-.971,28.168.972,32.614" transform="translate(8.465 20.506)" fill="#4c8c2b"></path><path id="Fill_8" data-name="Fill 8" d="M27.7,45.418c2.146-4.87,2.635-12.047-2.416-17.571C20.106,22.014,14.762,16.168,9.1,9.98q-3.5-3.829-7.032-7.7L0,0V76.812H2.381V6.149q2.488,2.73,4.967,5.437C13,17.769,18.338,23.608,23.518,29.441c4.291,4.691,3.85,10.833,2.007,15.017-1.859,4.219-5.211,7.054-8.341,7.054H9.067v2.38h8.117c4.122,0,8.251-3.327,10.519-8.474" transform="translate(39.586 9.577)" fill="#4c8c2b"></path><path id="Fill_10" data-name="Fill 10" d="M18,31.62c-1.2,2.73-3.567,4.564-5.887,4.564H4.854v2.381h7.261c3.249,0,6.491-2.406,8.065-5.986,1.955-4.444.976-9.438-2.594-13.332-3.93-4.565-8.618-9.6-13.581-14.939L0,0V61.557H2.38V6.057c4.9,5.27,9.533,10.249,13.426,14.771,2.938,3.2,3.759,7.239,2.2,10.792" transform="translate(43.799 20.548)" fill="#4c8c2b"></path><path id="Fill_12" data-name="Fill 12" d="M2.177,11.089H0L2.588,0H4.881L7.544,11.087H5.219L4.8,9.221H2.588l-.411,1.867ZM3.648,2.838,2.927,7.47H4.483L3.677,2.838Z" transform="translate(152.102 20.205)"></path><path id="Fill_14" data-name="Fill 14" d="M1.721,11.088H3.9V2.043H5.618V0H0V2.043H1.721Z" transform="translate(142.094 20.206)"></path><path id="Fill_16" data-name="Fill 16" d="M4.438,9.016H2.2v-2.5H4.16V4.456H2.2V2.043h2.22V0H0V11.089H4.438Z" transform="translate(119.761 20.205)"></path><path id="Fill_18" data-name="Fill 18" d="M2.206,11.089H0V0H2.47C4.8,0,6.031.994,6.117,2.955A3.23,3.23,0,0,1,4.529,6.03l1.927,5.057h-2.3L2.234,5.971H2.206v5.117Zm0-9.281V4.735a1.413,1.413,0,0,1,.325.03,1.452,1.452,0,0,0,1.064-.4,1.769,1.769,0,0,0,.362-1.316c0-.82-.47-1.236-1.4-1.236Z" transform="translate(130.382 20.205)"></path><path id="Fill_20" data-name="Fill 20" d="M4.47,9.016H2.2V0H0V11.089H4.47Z" transform="translate(97.541 20.205)"></path><path id="Fill_22" data-name="Fill 22" d="M2.176,11.089H0L2.586,0h2.3L7.543,11.087H5.22L4.793,9.221H2.586l-.409,1.867ZM3.647,2.838,2.925,7.47h1.56L3.676,2.838Z" transform="translate(84.285 20.205)"></path><path id="Fill_24" data-name="Fill 24" d="M2.265,11.088H0V0H2.528A3.129,3.129,0,0,1,4.573.676a2.921,2.921,0,0,1,.971,2.03v.485A2.383,2.383,0,0,1,4.395,5.368,2.778,2.778,0,0,1,5.735,7.9a2.979,2.979,0,0,1-.41,1.743,2.831,2.831,0,0,1-1.259,1.089A4.371,4.371,0,0,1,2.265,11.088ZM2.206,6.235V9.25h.055a1.3,1.3,0,0,0,.732-.2,1.212,1.212,0,0,0,.455-.581,2.217,2.217,0,0,0,.14-.795,1.56,1.56,0,0,0-.347-1.021A1.269,1.269,0,0,0,2.206,6.235Zm0-4.4v2.7c.022,0,.046,0,.074,0a1.293,1.293,0,0,0,.779-.3A1.251,1.251,0,0,0,3.5,3.22,1.581,1.581,0,0,0,3.2,2.2a1.154,1.154,0,0,0-.935-.366Z" transform="translate(107.871 20.206)"></path><path id="Fill_26" data-name="Fill 26" d="M3.845,2.39a2.777,2.777,0,0,1,1.273-.316,3.074,3.074,0,0,1,.836.117V.178A4.566,4.566,0,0,0,4.691,0,4,4,0,0,0,2.338.771,5.38,5.38,0,0,0,.622,2.83,6.174,6.174,0,0,0,0,5.545,6.609,6.609,0,0,0,.66,8.531,5.187,5.187,0,0,0,2.4,10.574a4.178,4.178,0,0,0,3.55.544V9.059a6.816,6.816,0,0,1-.924.162,2.115,2.115,0,0,1-1.441-.566,3.463,3.463,0,0,1-.92-1.443,5.053,5.053,0,0,1-.3-1.785A4.105,4.105,0,0,1,2.8,3.449,2.524,2.524,0,0,1,3.845,2.39" transform="translate(110.273 39.488)"></path><path id="Fill_28" data-name="Fill 28" d="M0,11.087H2.206V0H0Z" transform="translate(123.236 39.607)"></path><path id="Fill_30" data-name="Fill 30" d="M0,11.087H2.2V0H0Z" transform="translate(144.652 39.607)"></path><path id="Fill_31" data-name="Fill 31" d="M2.175,11.088H0L2.588,0H4.88L7.542,11.086H5.219L4.792,9.22h-2.2l-.413,1.868ZM3.646,2.837l-.72,4.632H4.484l-.81-4.632Z" transform="translate(96.353 39.608)"></path><path id="Fill_32" data-name="Fill 32" d="M3.846,2.39a2.776,2.776,0,0,1,1.272-.316,3.076,3.076,0,0,1,.837.117V.178A4.568,4.568,0,0,0,4.691,0,4.006,4.006,0,0,0,2.337.771,5.382,5.382,0,0,0,.624,2.83,6.149,6.149,0,0,0,0,5.545,6.609,6.609,0,0,0,.661,8.531,5.185,5.185,0,0,0,2.4,10.574a4.18,4.18,0,0,0,3.551.544V9.059a6.836,6.836,0,0,1-.926.162,2.118,2.118,0,0,1-1.441-.566A3.47,3.47,0,0,1,2.67,7.212a4.965,4.965,0,0,1-.3-1.785A4.118,4.118,0,0,1,2.8,3.449,2.526,2.526,0,0,1,3.846,2.39" transform="translate(153.926 39.488)"></path><path id="Fill_33" data-name="Fill 33" d="M4.426,2.043V0H0V11.087H2.206v-4.6H4.22V4.425H2.206V2.043Z" transform="translate(132.923 39.608)"></path><path id="Fill_34" data-name="Fill 34" d="M2.207,11.088H0V0H2.78A3.36,3.36,0,0,1,5.111.778a3.181,3.181,0,0,1,.948,2.264,3.109,3.109,0,0,1-.9,2.6,3.626,3.626,0,0,1-2.434.926,3.1,3.1,0,0,0-.514-.058v4.573Zm0-9.28V4.735l.124,0a1.639,1.639,0,0,0,1.118-.326A1.551,1.551,0,0,0,3.838,3.22c0-.937-.45-1.412-1.337-1.412Z" transform="translate(84.489 39.607)"></path><path id="Fill_35" data-name="Fill 35" d="M0,2.131H75.233V0H0Z" transform="translate(84.679 34.596)"></path><path id="Fill_36" data-name="Fill 36" d="M.229,0H.044V1.523a.769.769,0,0,1,.17.013c.52-.013.768-.312.741-.893C.955.213.713,0,.229,0" transform="translate(95.858 61.762)"></path><path id="Fill_37" data-name="Fill 37" d="M0,0V3.733A.907.907,0,0,0,.892,3.17,3.138,3.138,0,0,0,1.163,1.8,2.572,2.572,0,0,0,.864.549.936.936,0,0,0,0,0" transform="translate(119.179 61.837)"></path><path id="Fill_38" data-name="Fill 38" d="M.227,0H.044V1.523a.77.77,0,0,1,.169.013C.734,1.523.98,1.224.955.643.955.213.712,0,.227,0" transform="translate(133.868 61.762)"></path><path id="Fill_39" data-name="Fill 39" d="M.834,0C.278-.008,0,.637,0,1.943a4.6,4.6,0,0,0,.175,1.28q.177.6.614.6a.548.548,0,0,0,.434-.206A1.535,1.535,0,0,0,1.5,3a4.927,4.927,0,0,0,.118-1.04A4.786,4.786,0,0,0,1.444.585C1.327.194,1.125,0,.834,0" transform="translate(91.346 61.793)"></path><path id="Fill_40" data-name="Fill 40" d="M75.413,14.726H0V0H75.413V14.725ZM7.59,4.35H7.53a1.732,1.732,0,0,0-1.107.428A2.456,2.456,0,0,0,5.732,5.9a4.8,4.8,0,0,0-.205,1.579,4.53,4.53,0,0,0,.3,1.614A2.091,2.091,0,0,0,6.5,10a1.808,1.808,0,0,0,.92.324c.059,0,.117.006.173.006a1.555,1.555,0,0,0,1.157-.446,2.628,2.628,0,0,0,.666-1.2A5.358,5.358,0,0,0,9.6,7.415a4.6,4.6,0,0,0-.3-1.769,2.121,2.121,0,0,0-.772-1.008A1.739,1.739,0,0,0,7.59,4.35Zm29.871.123v4.2a1.547,1.547,0,0,0,.48,1.293,1.821,1.821,0,0,0,1.175.368h.056a1.762,1.762,0,0,0,1.349-.453,1.814,1.814,0,0,0,.355-1.191V4.472H39.731V8.447a1.556,1.556,0,0,1-.1.637.435.435,0,0,1-.442.212h-.03c-.375,0-.565-.263-.565-.781V4.472Zm19.8,4.479v1.094a1.819,1.819,0,0,0,.964.283,1.607,1.607,0,0,0,.859-.234,1.575,1.575,0,0,0,.589-.634,1.841,1.841,0,0,0,.211-.868A1.961,1.961,0,0,0,59.72,7.8a1.632,1.632,0,0,0-.481-.608c-.01-.01-.093-.07-.239-.175s-.271-.2-.429-.337a1.554,1.554,0,0,1-.305-.349.711.711,0,0,1-.11-.369c.072-.372.257-.553.566-.553a1.321,1.321,0,0,1,.832.361V4.654a2.015,2.015,0,0,0-.986-.274,1.5,1.5,0,0,0-.89.279,1.4,1.4,0,0,0-.54.768,2.778,2.778,0,0,0-.107.672,1.663,1.663,0,0,0,.451,1.178,3.816,3.816,0,0,0,.6.49,2.779,2.779,0,0,1,.581.494.571.571,0,0,1,.1.515.628.628,0,0,1-.671.489A1.47,1.47,0,0,1,57.261,8.951Zm-15.527,0v1.094a1.811,1.811,0,0,0,.962.283,1.612,1.612,0,0,0,.861-.234,1.59,1.59,0,0,0,.587-.634,1.851,1.851,0,0,0,.211-.868,1.933,1.933,0,0,0-.163-.793,1.637,1.637,0,0,0-.479-.608c-.016-.013-.095-.072-.241-.175s-.276-.206-.428-.337a1.464,1.464,0,0,1-.3-.349.733.733,0,0,1-.112-.369c.072-.367.263-.553.567-.553a1.317,1.317,0,0,1,.832.361V4.654a2.022,2.022,0,0,0-.986-.274,1.509,1.509,0,0,0-.888.279,1.407,1.407,0,0,0-.541.768A2.737,2.737,0,0,0,41.5,6.1a1.676,1.676,0,0,0,.45,1.178,3.844,3.844,0,0,0,.6.49,2.883,2.883,0,0,1,.583.494.576.576,0,0,1,.1.515.629.629,0,0,1-.672.489A1.456,1.456,0,0,1,41.734,8.951Zm-24.44,0v1.094a1.828,1.828,0,0,0,.964.283,1.612,1.612,0,0,0,.859-.234,1.574,1.574,0,0,0,.588-.634,1.822,1.822,0,0,0,.212-.868A1.867,1.867,0,0,0,19.75,7.8a1.561,1.561,0,0,0-.474-.608c-.01-.009-.083-.063-.242-.175-.142-.1-.286-.215-.428-.337a1.545,1.545,0,0,1-.307-.349.755.755,0,0,1-.11-.369c.072-.367.262-.553.566-.553a1.31,1.31,0,0,1,.835.361V4.654A2.028,2.028,0,0,0,18.6,4.38a1.523,1.523,0,0,0-.892.279,1.4,1.4,0,0,0-.537.768,2.639,2.639,0,0,0-.109.672,1.68,1.68,0,0,0,.453,1.178,3.666,3.666,0,0,0,.6.49,2.8,2.8,0,0,1,.58.494.572.572,0,0,1,.1.515.629.629,0,0,1-.673.489A1.477,1.477,0,0,1,17.294,8.951ZM72.473,4.41a2.071,2.071,0,0,0-1.224.4,2.741,2.741,0,0,0-.889,1.07,3.182,3.182,0,0,0-.328,1.409,3.449,3.449,0,0,0,.345,1.554,2.7,2.7,0,0,0,.906,1.062,2.16,2.16,0,0,0,1.2.373,2.267,2.267,0,0,0,.644-.09V9.119a3.067,3.067,0,0,1-.482.085,1.1,1.1,0,0,1-.748-.294,1.76,1.76,0,0,1-.479-.751,2.563,2.563,0,0,1-.158-.927A2.167,2.167,0,0,1,71.489,6.2a1.337,1.337,0,0,1,.545-.551,1.472,1.472,0,0,1,.661-.165,1.594,1.594,0,0,1,.437.063V4.5A2.363,2.363,0,0,0,72.473,4.41ZM66.961,6.758h0l1.421,3.477h1.071V4.472H68.319V7.323a3.676,3.676,0,0,0,.093.611l-.014.014L66.961,4.472H65.874v5.764h1.147V7.591c-.01-.184-.035-.452-.077-.817l.016-.014ZM63.918,4.472v5.764h1.146V4.472Zm-9.74,0v5.764h2.309V9.158H55.326v-1.3h1.016V6.788H55.326V5.533H56.48V4.472Zm-1.957,0v5.764h1.147V4.472Zm-2.9,3.1h.015l1,2.662h1.193l-1-2.631a1.68,1.68,0,0,0,.826-1.6c-.046-1.02-.685-1.537-1.9-1.537H48.179v5.764h1.145V7.575Zm-4.592-3.1V5.533h.893v4.7h1.132v-4.7h.893V4.472Zm-11.286,0v5.764H34.5c1.528,0,2.333-.911,2.393-2.707a3.688,3.688,0,0,0-.524-2.192,1.985,1.985,0,0,0-1.778-.865ZM30.158,6.758h0l1.421,3.477h1.073V4.472H31.521V7.323a3.093,3.093,0,0,0,.089.611l-.013.014L30.158,4.472H29.074v5.764h1.146V7.591c-.008-.176-.032-.428-.077-.817l.015-.014ZM27.116,4.472v5.764h1.147V4.472Zm-6.824,0V5.533h.894v4.7h1.131v-4.7h.9V4.472Zm-6.08,0v5.764h2.31V9.158H15.36v-1.3h1.016V6.788H15.36V5.533h1.154V4.472Zm-2.9,3.1h.016l1,2.662h1.194l-1-2.631a1.679,1.679,0,0,0,.824-1.6c-.046-1.02-.683-1.537-1.894-1.537H10.168v5.764h1.147V7.575ZM2.7,4.472v5.764H3.846V7.844H4.9V6.773H3.846V5.533H5V4.472Z" transform="translate(84.587 56.351)"></path></g></svg> 