<svg width="61" height="54" viewBox="0 0 61 54" fill="none" xmlns="http://www.w3.org/2000/svg">
<path d="M12.8247 15.2303L30.0577 7.09427H25.1889L17.8216 0.816099C17.5013 0.495814 17.0529 0.367676 16.6044 0.367676H4.49645C3.40733 0.367676 2.57462 1.20051 2.57462 2.28951V15.2303H12.8247Z" fill="#00A5BB"/>
<path d="M53.1844 15.2302H58.4375V9.01607C58.4375 7.92695 57.6047 7.09424 56.5157 7.09424H49.3407L53.1844 15.2302Z" fill="#00A5BB"/>
<path d="M46.9702 1.26445C46.4577 0.175334 45.1124 -0.337097 43.9593 0.239464L11.4153 15.6146H53.6968L46.9702 1.26445Z" fill="#D4E1F4"/>
<path d="M60.4875 15.4865C60.1031 15.1021 59.5907 14.9099 59.0782 14.9099H58.4376H53.1844H12.8247H2.57465H1.93408C1.42152 14.9099 0.909092 15.1021 0.524677 15.4865C0.140262 15.8709 -0.0518845 16.3833 0.0121233 16.8959L1.93395 51.7461C1.99796 52.7711 2.8308 53.5399 3.85578 53.5399H57.1562C58.1812 53.5399 59.014 52.7712 59.078 51.7461L61 16.8959C61 16.3833 60.8078 15.8708 60.4875 15.4865Z" fill="#4DCFE0"/>
</svg>
