<svg width="10" height="12" viewBox="0 0 10 12" fill="none" xmlns="http://www.w3.org/2000/svg">
<path d="M5.06521 1.71165C4.76114 1.40759 4.26816 1.40759 3.96409 1.71165C3.66003 2.01572 3.66003 2.5087 3.96409 2.81276L7.70189 6.55057C8.00596 6.85463 8.49894 6.85463 8.80301 6.55057C9.10707 6.2465 9.10707 5.75352 8.80301 5.44945L5.06521 1.71165Z" fill="#002039" stroke="#002039" stroke-width="0.5"/>
<path d="M8.803 6.55056C9.10706 6.24649 9.10706 5.75351 8.803 5.44944C8.49893 5.14538 8.00595 5.14538 7.70188 5.44944L3.96408 9.18724C3.66002 9.49131 3.66002 9.98429 3.96408 10.2884C4.26815 10.5924 4.76113 10.5924 5.0652 10.2884L8.803 6.55056Z" fill="#002039" stroke="#002039" stroke-width="0.5"/>
</svg>
