<svg width="10" height="12" viewBox="0 0 10 12" fill="none" xmlns="http://www.w3.org/2000/svg">
<path d="M4.96409 10.2883C5.26816 10.5924 5.76114 10.5924 6.06521 10.2883C6.36927 9.98428 6.36927 9.4913 6.06521 9.18723L2.3274 5.44943C2.02334 5.14537 1.53035 5.14537 1.22629 5.44943C0.922227 5.7535 0.922227 6.24648 1.22629 6.55055L4.96409 10.2883Z" fill="#002039" stroke="#002039" stroke-width="0.5"/>
<path d="M1.2263 5.44944C0.922236 5.75351 0.922236 6.24649 1.2263 6.55056C1.53036 6.85462 2.02335 6.85462 2.32741 6.55056L6.06521 2.81276C6.36928 2.50869 6.36928 2.01571 6.06521 1.71164C5.76115 1.40758 5.26817 1.40758 4.9641 1.71164L1.2263 5.44944Z" fill="#002039" stroke="#002039" stroke-width="0.5"/>
</svg>
