<svg width="629" height="524" viewBox="0 0 629 524" fill="none" xmlns="http://www.w3.org/2000/svg">
<rect x="95" y="44.999" width="508" height="407" rx="2" fill="#17A2B8" fill-opacity="0.1"/>
<g filter="url(#filter0_d)">
<rect x="129" y="82.999" width="440" height="331" rx="10" fill="white"/>
</g>
<line x1="157.5" y1="151.499" x2="460.5" y2="151.499" stroke="#EAEDF2" stroke-linecap="round" stroke-dasharray="3 4"/>
<line x1="157.5" y1="202.499" x2="460.5" y2="202.499" stroke="#EAEDF2" stroke-linecap="round" stroke-dasharray="3 4"/>
<line x1="157.5" y1="253.499" x2="460.5" y2="253.499" stroke="#EAEDF2" stroke-linecap="round" stroke-dasharray="3 4"/>
<line x1="157.5" y1="304.499" x2="460.5" y2="304.499" stroke="#EAEDF2" stroke-linecap="round" stroke-dasharray="3 4"/>
<line x1="157.5" y1="355.499" x2="460.5" y2="355.499" stroke="#EAEDF2" stroke-linecap="round" stroke-dasharray="3 4"/>
<rect x="157" y="115" width="73" height="3" rx="1.5" fill="#002039"/>
<rect x="157" y="121" width="42.7931" height="3" rx="1.5" fill="#002039"/>
<rect opacity="0.3" x="178" y="369" width="33" height="3" rx="1.5" fill="#002039"/>
<rect opacity="0.3" x="184.947" y="375" width="19.3448" height="3" rx="1.5" fill="#002039"/>
<rect opacity="0.3" x="254" y="369" width="33" height="3" rx="1.5" fill="#002039"/>
<rect opacity="0.3" x="260.947" y="375" width="19.3448" height="3" rx="1.5" fill="#002039"/>
<rect opacity="0.3" x="330" y="369" width="33" height="3" rx="1.5" fill="#002039"/>
<rect opacity="0.3" x="336.947" y="375" width="19.3448" height="3" rx="1.5" fill="#002039"/>
<rect opacity="0.3" x="407" y="369" width="33" height="3" rx="1.5" fill="#002039"/>
<rect opacity="0.3" x="413.947" y="375" width="19.3448" height="3" rx="1.5" fill="#002039"/>
<path d="M252 205.999C252 204.342 253.343 202.999 255 202.999H258C259.657 202.999 261 204.342 261 205.999V354.999H252V205.999Z" fill="#FFC107"/>
<path d="M267 161.999C267 160.342 268.343 158.999 270 158.999H273C274.657 158.999 276 160.342 276 161.999V354.999H267V161.999Z" fill="#00A5BB"/>
<path d="M282 247.999C282 246.342 283.343 244.999 285 244.999H288C289.657 244.999 291 246.342 291 247.999V354.999H282V247.999Z" fill="#88CBFF"/>
<path d="M328 280.999C328 279.342 329.343 277.999 331 277.999H334C335.657 277.999 337 279.342 337 280.999V354.999H328V280.999Z" fill="#FFC107"/>
<path d="M343 216.999C343 215.342 344.343 213.999 346 213.999H349C350.657 213.999 352 215.342 352 216.999V354.999H343V216.999Z" fill="#00A5BB"/>
<path d="M358 211.999C358 210.342 359.343 208.999 361 208.999H364C365.657 208.999 367 210.342 367 211.999V354.999H358V211.999Z" fill="#88CBFF"/>
<path d="M405 205.999C405 204.342 406.343 202.999 408 202.999H411C412.657 202.999 414 204.342 414 205.999V354.999H405V205.999Z" fill="#FFC107"/>
<path d="M420 268.999C420 267.342 421.343 265.999 423 265.999H426C427.657 265.999 429 267.342 429 268.999V354.999H420V268.999Z" fill="#00A5BB"/>
<path d="M435 299.999C435 298.342 436.343 296.999 438 296.999H441C442.657 296.999 444 298.342 444 299.999V354.999H435V299.999Z" fill="#88CBFF"/>
<path d="M176 205.999C176 204.342 177.343 202.999 179 202.999H182C183.657 202.999 185 204.342 185 205.999V354.999H176V205.999Z" fill="#FFC107"/>
<path d="M191 232.999C191 231.342 192.343 229.999 194 229.999H197C198.657 229.999 200 231.342 200 232.999V354.999H191V232.999Z" fill="#00A5BB"/>
<path d="M206 179.999C206 178.342 207.343 176.999 209 176.999H212C213.657 176.999 215 178.342 215 179.999V354.999H206V179.999Z" fill="#88CBFF"/>
<rect x="485" y="260.999" width="8" height="8" rx="4" fill="#00A5BB"/>
<rect opacity="0.3" x="499" y="261" width="33" height="3" rx="1.5" fill="#002039"/>
<rect opacity="0.3" x="499" y="266" width="19.3448" height="3" rx="1.5" fill="#002039"/>
<rect x="485" y="201.999" width="8" height="8" rx="4" fill="#FFC107"/>
<rect opacity="0.3" x="499" y="202" width="33" height="3" rx="1.5" fill="#002039"/>
<rect opacity="0.3" x="499" y="207" width="19.3448" height="3" rx="1.5" fill="#002039"/>
<rect x="485" y="219" width="47" height="3" rx="1.5" fill="#002039"/>
<rect x="485" y="224" width="21" height="3" rx="1.5" fill="#002039"/>
<rect x="485" y="278" width="47" height="3" rx="1.5" fill="#002039"/>
<rect x="485" y="283" width="21" height="3" rx="1.5" fill="#002039"/>
<rect x="485" y="337" width="47" height="3" rx="1.5" fill="#002039"/>
<rect x="485" y="342" width="21" height="3" rx="1.5" fill="#002039"/>
<rect x="485" y="319.999" width="8" height="8" rx="4" fill="#88CBFF"/>
<rect opacity="0.3" x="499" y="319" width="33" height="3" rx="1.5" fill="#002039"/>
<rect opacity="0.3" x="499" y="324" width="19.3448" height="3" rx="1.5" fill="#002039"/>
<g filter="url(#filter1_d)">
<rect x="393" y="175.146" width="171.146" height="231.424" rx="10" transform="rotate(-90 393 175.146)" fill="white"/>
</g>
<rect x="537" y="56.999" width="8" height="8" rx="4" fill="#2759B6"/>
<rect opacity="0.3" x="550" y="58" width="33" height="3" rx="1.5" fill="#002039"/>
<rect opacity="0.3" x="550" y="63" width="19.3448" height="3" rx="1.5" fill="#002039"/>
<rect opacity="0.3" x="550" y="78" width="33" height="3" rx="1.5" fill="#002039"/>
<rect opacity="0.3" x="550" y="83" width="19.3448" height="3" rx="1.5" fill="#002039"/>
<rect opacity="0.3" x="550" y="98" width="33" height="3" rx="1.5" fill="#002039"/>
<rect opacity="0.3" x="550" y="103" width="19.3448" height="3" rx="1.5" fill="#002039"/>
<rect opacity="0.3" x="550" y="118" width="33" height="3" rx="1.5" fill="#002039"/>
<rect opacity="0.3" x="550" y="123" width="19.3448" height="3" rx="1.5" fill="#002039"/>
<rect opacity="0.3" x="550" y="138" width="33" height="3" rx="1.5" fill="#002039"/>
<rect opacity="0.3" x="550" y="143" width="19.3448" height="3" rx="1.5" fill="#002039"/>
<rect x="537" y="76.999" width="8" height="8" rx="4" fill="#00A5BB"/>
<rect x="537" y="96.999" width="8" height="8" rx="4" fill="#88CBFF"/>
<rect x="537" y="116.999" width="8" height="8" rx="4" fill="#FFC107"/>
<rect x="537" y="136.999" width="8" height="8" rx="4" fill="#E8A123"/>
<rect x="413" y="23" width="73" height="3" rx="1.5" fill="#002039"/>
<rect x="413" y="29" width="42.7931" height="3" rx="1.5" fill="#002039"/>
<path d="M464 50.999C471.754 50.999 479.405 52.767 486.373 56.1685C493.341 59.57 499.442 64.5155 504.211 70.6289C508.98 76.7424 512.293 83.8628 513.897 91.4488C515.501 99.0349 515.354 106.887 513.467 114.408L496.154 110.065C497.38 105.176 497.476 100.072 496.433 95.1414C495.39 90.2105 493.237 85.5822 490.137 81.6085C487.037 77.6347 483.072 74.4202 478.543 72.2092C474.014 69.9982 469.04 68.849 464 68.849V50.999Z" fill="#2759B6"/>
<path d="M513.467 114.408C511.737 121.304 508.584 127.763 504.211 133.369C499.837 138.975 494.34 143.605 488.071 146.961C481.803 150.317 474.902 152.325 467.811 152.856C460.721 153.388 453.598 152.431 446.899 150.046L452.884 133.23C457.238 134.78 461.868 135.402 466.477 135.056C471.086 134.711 475.572 133.406 479.646 131.224C483.721 129.043 487.294 126.034 490.137 122.39C492.98 118.746 495.029 114.547 496.154 110.065L513.467 114.408Z" fill="#00A5BB"/>
<path d="M446.899 150.046C440.46 147.754 434.547 144.192 429.511 139.569C424.476 134.947 420.422 129.36 417.588 123.14C414.755 116.92 413.201 110.194 413.018 103.361C412.836 96.5287 414.028 89.7292 416.525 83.3666L433.142 89.888C431.518 94.0236 430.743 98.4433 430.862 102.884C430.981 107.326 431.991 111.698 433.832 115.741C435.674 119.784 438.31 123.415 441.582 126.42C444.855 129.424 448.699 131.74 452.884 133.23L446.899 150.046Z" fill="#88CBFF"/>
<path d="M416.525 83.3666C419.123 76.7478 423.076 70.7453 428.131 65.7444C433.185 60.7436 439.23 56.8549 445.876 54.3281L452.219 71.0129C447.899 72.6554 443.97 75.183 440.685 78.4335C437.4 81.6841 434.83 85.5857 433.142 89.888L416.525 83.3666Z" fill="#FFC107"/>
<path d="M445.876 54.3281C451.665 52.1271 457.807 50.999 464 50.999V68.849C459.974 68.849 455.982 69.5823 452.219 71.0129L445.876 54.3281Z" fill="#E8A123"/>
<rect x="441" y="98" width="46" height="3" rx="1.5" fill="#002039"/>
<rect x="451" y="104" width="26" height="3" rx="1.5" fill="#002039"/>
<rect x="463" y="114" width="9" height="3" rx="1.5" fill="#63C897"/>
<path d="M457.622 114.435C457.821 114.205 458.179 114.205 458.378 114.435L459.882 116.172C460.162 116.496 459.932 116.999 459.504 116.999H456.496C456.068 116.999 455.838 116.496 456.118 116.172L457.622 114.435Z" fill="#63C897"/>
<g filter="url(#filter2_d)">
<rect x="4" y="249" width="199" height="44" rx="10" fill="white"/>
</g>
<rect width="9.27377" height="1.54563" rx="0.772814" transform="matrix(-0.699315 0.699314 -0.699315 -0.699314 187 270)" fill="#00A5BB"/>
<rect width="9.27376" height="1.54563" rx="0.772813" transform="matrix(-0.699314 -0.699315 0.699314 -0.699315 180.515 276.485)" fill="#00A5BB"/>
<rect x="25" y="267" width="73" height="3" rx="1.5" fill="#002039"/>
<rect x="25" y="273" width="42.7931" height="3" rx="1.5" fill="#002039"/>
<g filter="url(#filter3_d)">
<rect x="4" y="295" width="199" height="225" rx="10" fill="white"/>
</g>
<rect x="14" y="342" width="179" height="30" rx="2" fill="#00A5BB" fill-opacity="0.1"/>
<rect opacity="0.3" x="24" y="318" width="38" height="3" rx="1.5" fill="#002039"/>
<rect opacity="0.3" x="24" y="324" width="22.2759" height="3" rx="1.5" fill="#002039"/>
<rect x="24" y="352" width="80" height="3" rx="1.5" fill="#00A5BB"/>
<rect x="24" y="358" width="47" height="3" rx="1.5" fill="#00A5BB"/>
<rect opacity="0.3" x="24" y="386" width="69" height="3" rx="1.5" fill="#002039"/>
<rect opacity="0.3" x="24" y="392" width="40.4483" height="3" rx="1.5" fill="#002039"/>
<rect opacity="0.3" x="24" y="420" width="29" height="3" rx="1.5" fill="#002039"/>
<rect opacity="0.3" x="24" y="426" width="17" height="3" rx="1.5" fill="#002039"/>
<rect opacity="0.3" x="24" y="454" width="102" height="3" rx="1.5" fill="#002039"/>
<rect opacity="0.3" x="24" y="460" width="59.7931" height="3" rx="1.5" fill="#002039"/>
<rect opacity="0.3" x="24" y="488" width="38" height="3" rx="1.5" fill="#002039"/>
<rect opacity="0.3" x="24" y="494" width="22.2759" height="3" rx="1.5" fill="#002039"/>
<defs>
<filter id="filter0_d" x="125" y="78.999" width="448" height="339" filterUnits="userSpaceOnUse" color-interpolation-filters="sRGB">
<feFlood flood-opacity="0" result="BackgroundImageFix"/>
<feColorMatrix in="SourceAlpha" type="matrix" values="0 0 0 0 0 0 0 0 0 0 0 0 0 0 0 0 0 0 127 0"/>
<feOffset/>
<feGaussianBlur stdDeviation="2"/>
<feColorMatrix type="matrix" values="0 0 0 0 0.0392157 0 0 0 0 0.00784314 0 0 0 0 0.0117647 0 0 0 0.1 0"/>
<feBlend mode="normal" in2="BackgroundImageFix" result="effect1_dropShadow"/>
<feBlend mode="normal" in="SourceGraphic" in2="effect1_dropShadow" result="shape"/>
</filter>
<filter id="filter1_d" x="389" y="0" width="239.424" height="179.146" filterUnits="userSpaceOnUse" color-interpolation-filters="sRGB">
<feFlood flood-opacity="0" result="BackgroundImageFix"/>
<feColorMatrix in="SourceAlpha" type="matrix" values="0 0 0 0 0 0 0 0 0 0 0 0 0 0 0 0 0 0 127 0"/>
<feOffset/>
<feGaussianBlur stdDeviation="2"/>
<feColorMatrix type="matrix" values="0 0 0 0 0.0392157 0 0 0 0 0.00784314 0 0 0 0 0.0117647 0 0 0 0.1 0"/>
<feBlend mode="normal" in2="BackgroundImageFix" result="effect1_dropShadow"/>
<feBlend mode="normal" in="SourceGraphic" in2="effect1_dropShadow" result="shape"/>
</filter>
<filter id="filter2_d" x="0" y="245" width="207" height="52" filterUnits="userSpaceOnUse" color-interpolation-filters="sRGB">
<feFlood flood-opacity="0" result="BackgroundImageFix"/>
<feColorMatrix in="SourceAlpha" type="matrix" values="0 0 0 0 0 0 0 0 0 0 0 0 0 0 0 0 0 0 127 0"/>
<feOffset/>
<feGaussianBlur stdDeviation="2"/>
<feColorMatrix type="matrix" values="0 0 0 0 0.0392157 0 0 0 0 0.00784314 0 0 0 0 0.0117647 0 0 0 0.1 0"/>
<feBlend mode="normal" in2="BackgroundImageFix" result="effect1_dropShadow"/>
<feBlend mode="normal" in="SourceGraphic" in2="effect1_dropShadow" result="shape"/>
</filter>
<filter id="filter3_d" x="0" y="291" width="207" height="233" filterUnits="userSpaceOnUse" color-interpolation-filters="sRGB">
<feFlood flood-opacity="0" result="BackgroundImageFix"/>
<feColorMatrix in="SourceAlpha" type="matrix" values="0 0 0 0 0 0 0 0 0 0 0 0 0 0 0 0 0 0 127 0"/>
<feOffset/>
<feGaussianBlur stdDeviation="2"/>
<feColorMatrix type="matrix" values="0 0 0 0 0.0392157 0 0 0 0 0.00784314 0 0 0 0 0.0117647 0 0 0 0.1 0"/>
<feBlend mode="normal" in2="BackgroundImageFix" result="effect1_dropShadow"/>
<feBlend mode="normal" in="SourceGraphic" in2="effect1_dropShadow" result="shape"/>
</filter>
</defs>
</svg>
