<svg width="110" height="35" viewBox="0 0 110 35" fill="none" xmlns="http://www.w3.org/2000/svg">
<g clip-path="url(#clip0)">
<path d="M17.4704 34.6739C27.1191 34.6739 34.9409 26.9119 34.9409 17.337C34.9409 7.76202 27.1191 0 17.4704 0C7.82179 0 0 7.76202 0 17.337C0 26.9119 7.82179 34.6739 17.4704 34.6739Z" fill="#00A5BB"/>
<path d="M7.31404 24.7367C7.17134 24.7367 7.03185 24.7787 6.9132 24.8574C6.79455 24.936 6.70207 25.0479 6.64747 25.1787C6.59286 25.3095 6.57857 25.4535 6.60641 25.5924C6.63425 25.7312 6.70296 25.8588 6.80387 25.9589C6.90477 26.0591 7.03333 26.1273 7.17328 26.1549C7.31324 26.1825 7.45831 26.1683 7.59014 26.1142C7.72198 26.06 7.83466 25.9682 7.91394 25.8505C7.99322 25.7327 8.03553 25.5943 8.03553 25.4527C8.03449 25.2631 7.95814 25.0816 7.82306 24.9475C7.68798 24.8135 7.50507 24.7377 7.31404 24.7367Z" fill="white"/>
<path d="M18.6835 5.07879C18.5417 5.08265 18.4042 5.12791 18.2882 5.20889C18.1722 5.28988 18.0828 5.40301 18.0312 5.53413C17.9797 5.66525 17.9682 5.80855 17.9982 5.94611C18.0282 6.08368 18.0985 6.20941 18.2001 6.30758C18.3018 6.40576 18.4303 6.47202 18.5697 6.49809C18.7091 6.52416 18.8531 6.50888 18.9838 6.45416C19.1145 6.39943 19.226 6.3077 19.3045 6.19042C19.3829 6.07314 19.4248 5.93552 19.4248 5.79477C19.4243 5.69922 19.4047 5.60473 19.367 5.5168C19.3293 5.42887 19.2744 5.34926 19.2054 5.28262C19.1364 5.21598 19.0547 5.16363 18.9651 5.12864C18.8755 5.09364 18.7798 5.0767 18.6835 5.07879Z" fill="white"/>
<path d="M27.6466 26.1687C28.0451 26.1687 28.3681 25.8481 28.3681 25.4527C28.3681 25.0572 28.0451 24.7367 27.6466 24.7367C27.2482 24.7367 26.9252 25.0572 26.9252 25.4527C26.9252 25.8481 27.2482 26.1687 27.6466 26.1687Z" fill="white"/>
<path d="M19.5002 24.0325C19.8986 24.0325 20.2216 23.712 20.2216 23.3166C20.2216 22.9211 19.8986 22.6006 19.5002 22.6006C19.1017 22.6006 18.7787 22.9211 18.7787 23.3166C18.7787 23.712 19.1017 24.0325 19.5002 24.0325Z" fill="white"/>
<path d="M27.9519 24.2293C28.179 24.2853 28.3862 24.4023 28.5505 24.5676L29.272 23.3087L19.5993 6.68774C19.4368 6.85508 19.2311 6.97484 19.0046 7.03393L28.4832 23.3127L27.9519 24.2293Z" fill="white"/>
<path d="M16.8282 6.13702H17.4625C17.399 5.91321 17.399 5.67633 17.4625 5.45251H16.0354L5.66489 23.3088L6.40224 24.5755C6.56493 24.4093 6.7707 24.2908 6.99687 24.2332L6.4617 23.3088L16.2534 6.47928L26.7587 24.5755C26.9216 24.4096 27.1273 24.2912 27.3533 24.2332L16.8282 6.13702Z" fill="white"/>
<path d="M18.8064 24.3905L18.5685 25.1301H8.53502C8.59852 25.3539 8.59852 25.5908 8.53502 25.8146H19.072L19.4684 24.5951C19.2329 24.5888 19.0038 24.518 18.8064 24.3905Z" fill="white"/>
<path d="M26.4257 25.1104H25.4505L16.2296 9.41785L7.62326 24.2331C7.85089 24.2878 8.05837 24.405 8.22186 24.5715L16.2534 10.779L17.0978 12.2149L10.3665 23.6706H18.295C18.2631 23.5579 18.2471 23.4414 18.2474 23.3244C18.2467 23.2099 18.2627 23.096 18.295 22.9861H11.5796L12.4478 21.499H19.742L19.5636 22.0577C19.7971 22.0642 20.024 22.1366 20.2177 22.2662L20.6815 20.8185H12.8323L17.4784 12.8955L25.0541 25.7949H26.4257C26.3622 25.5711 26.3622 25.3342 26.4257 25.1104Z" fill="white"/>
<path d="M43.4442 23.5015L47.7375 10.8302H50.346L54.6432 23.5015L54.4133 23.8437H53.121L52.0387 20.5628H46.0923L45.0101 23.8437H43.6979L43.4442 23.5015ZM46.5403 19.1269H51.5551L49.2756 12.2661H48.8197L46.5403 19.1269Z" fill="#0A0203"/>
<path d="M58.0208 21.1647V9.89001H59.543V21.2985C59.543 22.1561 59.9857 22.6085 60.8711 22.6557V23.9972C58.9709 23.9972 58.0208 23.053 58.0208 21.1647Z" fill="#0A0203"/>
<path d="M64.4191 21.0152V10.8302H65.9374V14.0364H69.5488V15.3425H65.9374V21.2041C65.9374 22.0826 66.3814 22.5219 67.2694 22.5219H69.7391V23.2772L68.9779 23.8437H67.2694C65.3718 23.8437 64.4217 22.9009 64.4191 21.0152Z" fill="#0A0203"/>
<path d="M75.9432 23.8437C74.0324 23.8437 73.077 22.8943 73.077 20.9956C73.077 19.0968 74.0324 18.1474 75.9432 18.1474H79.4238V16.6761C79.4238 15.787 78.9811 15.3425 78.0957 15.3425H74.0245V14.6029L74.7856 14.0364H78.0957C79.9959 14.0364 80.946 14.9792 80.946 16.8649V23.8437H75.9432ZM74.5953 21.2041C74.5953 22.0826 75.0393 22.5219 75.9273 22.5219H79.4238V19.4692H75.9273C75.0393 19.4692 74.5953 19.9085 74.5953 20.7871V21.2041Z" fill="#0A0203"/>
<path d="M85.1362 23.8437V10.8302H88.4028L92.1054 18.6981L95.8119 10.8302H99.1062V23.8437H96.3313V15.6218L93.255 22.1443H90.9359L87.8597 15.6218V23.8437H85.1362Z" fill="#0A0203"/>
<path d="M101.604 23.8437V10.8302H104.339V21.3929H110V23.8437H101.604Z" fill="#0A0203"/>
</g>
<defs>
<clipPath id="clip0">
<rect width="110" height="34.6739" fill="white"/>
</clipPath>
</defs>
</svg>
