<svg width="20" height="20" viewBox="0 0 20 20" fill="none" xmlns="http://www.w3.org/2000/svg">
<path opacity="0.5" fill-rule="evenodd" clip-rule="evenodd" d="M3.59805 5.08845C5.93736 5.97717 8.54737 4.47027 8.94735 2H11.0525C11.4525 4.47029 14.0626 5.97719 16.4019 5.08843L17.4545 6.91155C15.5151 8.49309 15.5151 11.5069 17.4545 13.0885L16.4019 14.9116C14.0626 14.0228 11.4525 15.5297 11.0525 18H8.94735C8.54736 15.5297 5.93736 14.0228 3.59805 14.9116L2.54546 13.0884C4.48476 11.5069 4.48476 8.49313 2.54546 6.91159L3.59805 5.08845ZM6.99994 1C6.99994 0.447716 7.44765 0 7.99994 0H11.9999C12.5522 0 12.9999 0.447715 12.9999 1V1.33975C12.9999 2.87935 14.6666 3.8416 15.9999 3.0718L16.2942 2.90192C16.7725 2.62577 17.3841 2.78965 17.6602 3.26794L19.6602 6.73204C19.9364 7.21034 19.7725 7.82193 19.2942 8.09807L18.9999 8.26796C17.6666 9.03776 17.6666 10.9623 18.9999 11.7321L19.2942 11.9019C19.7725 12.1781 19.9364 12.7897 19.6602 13.268L17.6602 16.7321C17.3841 17.2104 16.7725 17.3742 16.2942 17.0981L15.9999 16.9282C14.6666 16.1584 12.9999 17.1207 12.9999 18.6603V19C12.9999 19.5523 12.5522 20 11.9999 20H7.99994C7.44765 20 6.99994 19.5523 6.99994 19V18.6603C6.99994 17.1207 5.33327 16.1584 3.99994 16.9282L3.70573 17.0981C3.22744 17.3742 2.61585 17.2103 2.33971 16.732L0.339706 13.2679C0.0635635 12.7896 0.227439 12.1781 0.705731 11.9019L0.999934 11.7321C2.33327 10.9623 2.33327 9.03776 0.999935 8.26796L0.705732 8.0981C0.227439 7.82196 0.0635643 7.21037 0.339707 6.73207L2.33971 3.26797C2.61585 2.78968 3.22744 2.6258 3.70573 2.90195L3.99994 3.0718C5.33327 3.8416 6.99994 2.87935 6.99994 1.33975V1ZM11.9999 10C11.9999 11.1046 11.1044 12 9.99988 12C8.89531 12 7.99988 11.1046 7.99988 10C7.99988 8.89543 8.89531 8 9.99988 8C11.1044 8 11.9999 8.89543 11.9999 10ZM13.9999 10C13.9999 12.2091 12.209 14 9.99988 14C7.79074 14 5.99988 12.2091 5.99988 10C5.99988 7.79086 7.79074 6 9.99988 6C12.209 6 13.9999 7.79086 13.9999 10Z" fill="#002039"/>
</svg>
