<svg width="20" height="20" viewBox="0 0 20 20" fill="none" xmlns="http://www.w3.org/2000/svg">
<path fill-rule="evenodd" clip-rule="evenodd" d="M0 3C0 1.34315 1.34315 0 3 0H17C18.6569 0 20 1.34315 20 3V17C20 18.6569 18.6569 20 17 20H3C1.34315 20 0 18.6569 0 17V3ZM3 2C2.44772 2 2 2.44772 2 3V17C2 17.5523 2.44772 18 3 18H17C17.5523 18 18 17.5523 18 17V3C18 2.44772 17.5523 2 17 2H3ZM15 11C15.5523 11 16 11.4477 16 12V15C16 15.5523 15.5523 16 15 16H12C11.4477 16 11 15.5523 11 15C11 14.4477 11.4477 14 12 14H14V12C14 11.4477 14.4477 11 15 11ZM11 5C11 4.44772 11.4477 4 12 4H14.9993H15C15.5523 4 16 4.44771 16 5V8C16 8.55228 15.5523 9 15 9C14.4477 9 14 8.55228 14 8V6H12C11.4477 6 11 5.55228 11 5ZM9 15C9 15.5523 8.55228 16 8 16H5C4.44771 16 4 15.5523 4 15L4 12C4 11.4477 4.44772 11 5 11C5.55228 11 6 11.4477 6 12L6 14H8C8.55228 14 9 14.4477 9 15ZM5 9C4.44772 9 4 8.55228 4 8L4 5.0007C4 5.00046 4 5.00023 4 5C4 4.44771 4.44772 4 5 4C5.00023 4 5.00047 4 5.0007 4L8 4C8.55229 4 9 4.44772 9 5C9 5.55228 8.55229 6 8 6L6 6L6 8C6 8.55228 5.55228 9 5 9Z" fill="white"/>
</svg>
