<svg width="20" height="20" viewBox="0 0 20 20" fill="none" xmlns="http://www.w3.org/2000/svg">
<path opacity="0.5" fill-rule="evenodd" clip-rule="evenodd" d="M9.0166 1.17295C11.0588 0.76673 13.1786 1.08118 15.015 2.06272C16.8513 3.04426 18.2905 4.63216 19.0873 6.55586C19.8841 8.47956 19.9893 10.62 19.3849 12.6126C18.7804 14.6051 17.5038 16.3264 15.7725 17.4832C14.0413 18.64 11.9624 19.1608 9.89026 18.9567C7.81809 18.7526 5.88079 17.8363 4.40845 16.364C4.01793 15.9735 4.01793 15.3403 4.40845 14.9498C4.79897 14.5592 5.43214 14.5592 5.82266 14.9498C6.96781 16.0949 8.4746 16.8076 10.0863 16.9663C11.698 17.125 13.3148 16.72 14.6614 15.8203C16.008 14.9206 17.0009 13.5818 17.471 12.032C17.9411 10.4823 17.8593 8.81744 17.2396 7.32123C16.6198 5.82502 15.5004 4.58999 14.0722 3.82657C12.6439 3.06314 10.9951 2.81857 9.40678 3.13452C7.81841 3.45046 6.38873 4.30738 5.36134 5.55926C4.46297 6.65393 3.9208 7.99136 3.79879 9.39277C4.16834 9.30307 4.57298 9.42924 4.82269 9.74816C5.16316 10.183 5.08666 10.8115 4.65181 11.152L3.08601 12.378L3.07716 12.385C2.85548 12.5586 2.58346 12.6238 2.32493 12.5884C2.07631 12.5544 1.84015 12.4273 1.67323 12.2141L1.66643 12.2053L0.440339 10.6394C0.0998633 10.2045 0.176369 9.57601 0.611219 9.23553C0.968241 8.95599 1.45582 8.95754 1.80734 9.20771C1.96618 7.41009 2.66274 5.69489 3.81532 4.29047C5.13625 2.68091 6.97441 1.57916 9.0166 1.17295ZM10.1436 5.00001C9.59134 5.00001 9.14363 5.44773 9.14363 6.00001V11C9.14363 11.2437 9.23078 11.467 9.37561 11.6405C9.40955 11.6874 9.44805 11.7319 9.49109 11.7736L12.1232 14.3202C12.5201 14.7042 13.1532 14.6938 13.5372 14.2969C13.9212 13.9 13.9108 13.2669 13.5139 12.8829L11.1436 10.5896V6.00001C11.1436 5.44773 10.6959 5.00001 10.1436 5.00001Z" fill="#002039"/>
</svg>
