<svg width="20" height="14" viewBox="0 0 20 14" fill="none" xmlns="http://www.w3.org/2000/svg">
<path fill-rule="evenodd" clip-rule="evenodd" d="M0 1C0 0.447715 0.447715 0 1 0H19C19.5523 0 20 0.447715 20 1C20 1.55228 19.5523 2 19 2H1C0.447715 2 0 1.55228 0 1ZM0 13C0 12.4477 0.447715 12 1 12H19C19.5523 12 20 12.4477 20 13C20 13.5523 19.5523 14 19 14H1C0.447715 14 0 13.5523 0 13ZM1 6C0.447715 6 0 6.44772 0 7C0 7.55228 0.447715 8 1 8H10C10.5523 8 11 7.55228 11 7C11 6.44772 10.5523 6 10 6H1Z" fill="#00A5BB"/>
</svg>
