<svg width="20" height="20" viewBox="0 0 20 20" fill="none" xmlns="http://www.w3.org/2000/svg">
<path fill-rule="evenodd" clip-rule="evenodd" d="M9.01648 1.17295C11.0587 0.76673 13.1785 1.08118 15.0149 2.06272C16.8512 3.04426 18.2904 4.63216 19.0872 6.55586C19.884 8.47956 19.9892 10.62 19.3848 12.6126C18.7803 14.6051 17.5037 16.3264 15.7724 17.4832C14.0411 18.64 11.9623 19.1608 9.89013 18.9567C7.81796 18.7526 5.88066 17.8363 4.40833 16.364C4.0178 15.9735 4.0178 15.3403 4.40833 14.9498C4.79885 14.5592 5.43202 14.5592 5.82254 14.9498C6.96769 16.0949 8.47448 16.8076 10.0862 16.9663C11.6979 17.125 13.3147 16.72 14.6613 15.8203C16.0078 14.9206 17.0008 13.5818 17.4709 12.032C17.941 10.4823 17.8592 8.81744 17.2394 7.32123C16.6197 5.82502 15.5003 4.58999 14.0721 3.82657C12.6438 3.06314 10.995 2.81857 9.40666 3.13452C7.81829 3.45046 6.38861 4.30738 5.36122 5.55926C4.46285 6.65393 3.92067 7.99136 3.79867 9.39277C4.16821 9.30307 4.57286 9.42924 4.82257 9.74816C5.16304 10.183 5.08654 10.8115 4.65169 11.152L3.08589 12.378L3.07704 12.385C2.85536 12.5586 2.58334 12.6238 2.32481 12.5884C2.07618 12.5544 1.84003 12.4273 1.6731 12.2141L1.66631 12.2053L0.440217 10.6394C0.0997412 10.2045 0.176246 9.57601 0.611096 9.23553C0.968119 8.95599 1.45569 8.95754 1.80722 9.20771C1.96606 7.41009 2.66262 5.69489 3.8152 4.29047C5.13613 2.68091 6.97429 1.57916 9.01648 1.17295ZM10.1435 5.00001C9.59122 5.00001 9.14351 5.44773 9.14351 6.00001V11C9.14351 11.2437 9.23066 11.467 9.37549 11.6405C9.40943 11.6874 9.44793 11.7319 9.49096 11.7736L12.123 14.3202C12.52 14.7042 13.153 14.6938 13.5371 14.2969C13.9211 13.9 13.9106 13.2669 13.5137 12.8829L11.1435 10.5896V6.00001C11.1435 5.44773 10.6958 5.00001 10.1435 5.00001Z" fill="white"/>
</svg>
