<svg width="20" height="20" viewBox="0 0 20 20" fill="none" xmlns="http://www.w3.org/2000/svg">
<path fill-rule="evenodd" clip-rule="evenodd" d="M9.01655 1.17295C11.0587 0.76673 13.1786 1.08118 15.0149 2.06272C16.8513 3.04426 18.2905 4.63216 19.0873 6.55586C19.8841 8.47956 19.9893 10.62 19.3848 12.6126C18.7804 14.6051 17.5038 16.3264 15.7725 17.4832C14.0412 18.64 11.9624 19.1608 9.89021 18.9567C7.81804 18.7526 5.88074 17.8363 4.4084 16.364C4.01788 15.9735 4.01788 15.3403 4.4084 14.9498C4.79893 14.5592 5.43209 14.5592 5.82262 14.9498C6.96777 16.0949 8.47456 16.8076 10.0862 16.9663C11.6979 17.125 13.3148 16.72 14.6614 15.8203C16.0079 14.9206 17.0008 13.5818 17.4709 12.032C17.9411 10.4823 17.8593 8.81744 17.2395 7.32123C16.6198 5.82502 15.5004 4.58999 14.0721 3.82657C12.6439 3.06314 10.9951 2.81857 9.40673 3.13452C7.81837 3.45046 6.38868 4.30738 5.36129 5.55926C4.46293 6.65392 3.92075 7.99135 3.79875 9.39276C4.16827 9.30309 4.57288 9.42927 4.82257 9.74817C5.16304 10.183 5.08654 10.8115 4.65169 11.152L3.08589 12.378L3.07704 12.385C2.85536 12.5586 2.58334 12.6238 2.32481 12.5884C2.07618 12.5544 1.84003 12.4273 1.6731 12.2141L1.66631 12.2053L0.440218 10.6394C0.0997418 10.2045 0.176247 9.57602 0.611097 9.23554C0.968144 8.95598 1.45576 8.95754 1.80729 9.20776C1.96612 7.41013 2.66269 5.6949 3.81527 4.29047C5.1362 2.68091 6.97437 1.57916 9.01655 1.17295ZM14.9665 11.2163L10.3209 14.569C9.32888 15.2849 7.94312 14.5761 7.94312 13.3527L7.94312 6.64733C7.94312 5.42391 9.32888 4.71505 10.3209 5.431L14.9665 8.78367C15.7961 9.38238 15.7961 10.6176 14.9665 11.2163ZM13.2343 10L9.94312 7.62478V12.3752L13.2343 10Z" fill="white"/>
</svg>
