<svg width="20" height="20" viewBox="0 0 20 20" fill="none" xmlns="http://www.w3.org/2000/svg">
<path fill-rule="evenodd" clip-rule="evenodd" d="M0 19C0 19.5523 0.447715 20 1 20H19C19.5523 20 20 19.5523 20 19C20 18.4477 19.5523 18 19 18H2V1C2 0.447716 1.55228 0 1 0C0.447715 0 0 0.447716 0 1V19ZM12.8641 5.54672C12.3118 5.54671 11.8641 5.99444 11.8641 6.5467C11.8641 7.09899 12.3118 7.5467 12.8641 7.5467L14.1775 7.54671L10.4853 11.239L9.07104 9.82474C8.68051 9.43421 8.04734 9.43422 7.65683 9.82474L2.70708 14.7745C2.31656 15.165 2.31655 15.7982 2.70708 16.1887C3.09761 16.5792 3.73077 16.5792 4.12129 16.1887L8.36393 11.9461L9.77815 13.3603C10.1687 13.7508 10.8018 13.7508 11.1924 13.3603L15.6141 8.93855V10.2967C15.6141 10.849 16.0618 11.2967 16.6141 11.2967C17.1664 11.2967 17.6141 10.849 17.6141 10.2967L17.6141 6.5467C17.6141 5.99444 17.1664 5.54672 16.6141 5.54671L12.8641 5.54672Z" fill="#002039" fill-opacity="0.5"/>
</svg>
