<svg width="20" height="20" viewBox="0 0 20 20" fill="none" xmlns="http://www.w3.org/2000/svg">
<g opacity="0.5">
<path fill-rule="evenodd" clip-rule="evenodd" d="M15.6202 0.0172119C16.1671 0.0172099 16.6115 0.456232 16.6201 1.00108L16.6202 1.01721V1.01724V1.01819V3.01721C16.6202 3.56949 16.1725 4.01721 15.6202 4.01721C15.192 4.01721 14.8267 3.74806 14.6841 3.36969L11.4461 6.60775L11.4394 6.61451C11.1643 6.88963 10.7687 6.97092 10.4224 6.8584C10.3386 6.83117 10.2576 6.79257 10.182 6.74263C10.1265 6.70602 10.0739 6.6633 10.0251 6.61449L10.0213 6.61065L8.61092 5.20026L2.95406 10.8571C2.56353 11.2477 1.93037 11.2477 1.53985 10.8571C1.14932 10.4666 1.14932 9.83344 1.53985 9.44291L7.90381 3.07895C8.21577 2.76698 8.68258 2.70423 9.05685 2.89069C9.1511 2.93764 9.23949 3.0004 9.31806 3.07897L10.7322 4.49315L13.2709 1.95452C12.8909 1.81282 12.6202 1.44663 12.6202 1.01724C12.6202 0.464956 13.068 0.0172407 13.6202 0.0172407L15.6123 0.0172406L15.6202 0.0172119ZM13.5 7.98276C13.5 6.87819 14.3954 5.98276 15.5 5.98276H16.5C17.6046 5.98276 18.5 6.87819 18.5 7.98276V17.9828H19C19.5523 17.9828 20 18.4305 20 18.9828C20 19.535 19.5523 19.9828 19 19.9828H17.5H14.5H12.5H11.5H8.5H7.5H6.5H5.5H2.5H1.5H1C0.447715 19.9828 0 19.535 0 18.9828C0 18.4305 0.447715 17.9828 1 17.9828H1.5V15.9828C1.5 14.8782 2.39543 13.9828 3.5 13.9828H4.5C5.60457 13.9828 6.5 14.8782 6.5 15.9828V17.9828H7.5V12.9828C7.5 11.8782 8.39543 10.9828 9.5 10.9828H10.5C11.6046 10.9828 12.5 11.8782 12.5 12.9828V17.9828H13.5V7.98276ZM4.5 17.9828H3.5V15.9828H4.5V17.9828ZM10.5 17.9828V12.9828H9.5V17.9828H10.5ZM15.5 7.98276H16.5V17.9828H15.5V7.98276Z" fill="#002039"/>
</g>
</svg>
