<svg width="20" height="20" viewBox="0 0 20 20" fill="none" xmlns="http://www.w3.org/2000/svg">
<g opacity="0.5">
<path fill-rule="evenodd" clip-rule="evenodd" d="M8.99998 0C7.89541 0 6.99998 0.895431 6.99998 2V8H4.56154C3.6438 8 2.84384 8.62459 2.62125 9.51493L0.621251 17.5149C0.305678 18.7772 1.26039 20 2.56154 20H17.4384C18.7396 20 19.6943 18.7772 19.3787 17.5149L17.3787 9.51493C17.1561 8.62459 16.3562 8 15.4384 8H13V2C13 0.895431 12.1046 0 11 0H8.99998ZM11 8V2H8.99998V8H11ZM8.99998 10H4.56154L4.31154 11H15.6884L15.4384 10H11H8.99998ZM2.56154 18L3.81154 13H16.1884L17.4384 18H6.42112L6.82745 16.4836C6.97039 15.9501 6.65381 15.4018 6.12035 15.2588C5.58688 15.1159 5.03854 15.4325 4.8956 15.9659L4.35057 18H2.56154Z" fill="#002039"/>
</g>
</svg>
