<svg width="20" height="20" viewBox="0 0 20 20" fill="none" xmlns="http://www.w3.org/2000/svg">
<g opacity="0.5">
<path fill-rule="evenodd" clip-rule="evenodd" d="M12.3093 0.265446C10.1229 -0.249999 7.82701 -0.0103038 5.79347 0.945545C3.75999 1.90137 2.10823 3.51715 1.10492 5.53079C0.858626 6.02512 1.05969 6.62551 1.55401 6.87181C2.04834 7.11811 2.64873 6.91704 2.89503 6.42272C3.69792 4.81132 5.01913 3.51944 6.64426 2.75556C8.26934 1.99171 10.1036 1.80029 11.8504 2.21208C13.5973 2.62389 15.155 3.61501 16.2713 5.02573C17.3876 6.43651 17.9969 8.18425 18 9.98613C18.0031 11.788 17.3998 13.5379 16.2884 14.9525C15.1771 16.3671 13.6227 17.3637 11.8773 17.7815C10.1319 18.1994 8.297 18.0144 6.6693 17.2562C5.04155 16.4979 3.71588 15.2107 2.90743 13.6021C2.65942 13.1086 2.05834 12.9096 1.56487 13.1576C1.0714 13.4056 0.872417 14.0067 1.12043 14.5002C2.13069 16.5103 3.78803 18.1204 5.8248 19.0691C7.86163 20.0179 10.1583 20.2496 12.343 19.7266C14.5276 19.2035 16.4718 17.9565 17.8611 16.1881C19.2504 14.4197 20.0039 12.2333 20 9.98268C19.9961 7.73207 19.2351 5.54826 17.8397 3.78471C16.4442 2.02111 14.4958 0.780883 12.3093 0.265446ZM10.1213 6.29289C9.73077 5.90237 9.0976 5.90237 8.70708 6.29289C8.31655 6.68342 8.31655 7.31658 8.70708 7.70711L10.0858 9.08579H1C0.447715 9.08579 0 9.5335 0 10.0858C0 10.6381 0.447715 11.0858 1 11.0858H9.74265L8.70711 12.1213C8.31659 12.5118 8.31659 13.145 8.70711 13.5355C9.09764 13.9261 9.7308 13.9261 10.1213 13.5355L12.9498 10.7071C13.1669 10.49 13.2633 10.1978 13.239 9.91401C13.2632 9.63037 13.1668 9.33837 12.9497 9.12132L10.1213 6.29289Z" fill="#002039"/>
</g>
</svg>
