<svg width="20" height="20" viewBox="0 0 20 20" fill="none" xmlns="http://www.w3.org/2000/svg">
<path fill-rule="evenodd" clip-rule="evenodd" d="M0 19C0 19.5523 0.447715 20 1 20H19C19.5523 20 20 19.5523 20 19C20 18.4477 19.5523 18 19 18H2V1C2 0.447715 1.55228 0 1 0C0.447715 0 0 0.447715 0 1V19ZM16.6141 5.54671C17.1664 5.54671 17.6141 5.99443 17.6141 6.54671V10.2967C17.6141 10.849 17.1664 11.2967 16.6141 11.2967C16.0618 11.2967 15.6141 10.849 15.6141 10.2967V8.93856L11.1924 13.3603C10.8018 13.7508 10.1687 13.7508 9.77815 13.3603L8.36393 11.9461L4.12129 16.1887C3.73077 16.5792 3.0976 16.5792 2.70708 16.1887C2.31655 15.7982 2.31655 15.165 2.70708 14.7745L7.65683 9.82474C8.04735 9.43422 8.68052 9.43422 9.07104 9.82474L10.4853 11.239L14.1775 7.54671H12.8641C12.3118 7.54671 11.8641 7.099 11.8641 6.54671C11.8641 5.99443 12.3118 5.54671 12.8641 5.54671H16.6137H16.6141Z" fill="white"/>
</svg>
