<svg width="17" height="18" viewBox="0 0 17 18" fill="none" xmlns="http://www.w3.org/2000/svg">
<g opacity="0.4">
<path d="M16.2929 8.29289C16.6834 8.68342 16.6834 9.31658 16.2929 9.70711L9.22182 16.7782C8.8313 17.1687 8.19814 17.1687 7.80761 16.7782C7.41709 16.3877 7.41709 15.7545 7.80761 15.364L14.8787 8.29289C15.2692 7.90237 15.9024 7.90237 16.2929 8.29289Z" fill="#002039"/>
<path d="M9.22182 16.7782C8.83129 17.1687 8.19813 17.1687 7.8076 16.7782L0.736535 9.70711C0.346011 9.31659 0.346011 8.68343 0.736535 8.2929C1.12706 7.90238 1.76022 7.90238 2.15075 8.2929L9.22182 15.364C9.61234 15.7545 9.61234 16.3877 9.22182 16.7782Z" fill="#002039"/>
</g>
</svg>
